<!DOCTYPE svg PUBLIC "-//W3C//DTD SVG 1.1//EN" "http://www.w3.org/Graphics/SVG/1.1/DTD/svg11.dtd">
<!-- Uploaded to: SVG Repo, www.svgrepo.com, Transformed by: SVG Repo Mixer Tools -->
<svg fill="#ffffff" height="800px" width="800px" version="1.1" id="Capa_1" xmlns="http://www.w3.org/2000/svg" xmlns:xlink="http://www.w3.org/1999/xlink" viewBox="0 0 330.00 330.00" xml:space="preserve" stroke="#ffffff" stroke-width="0.00330001">
<g id="SVGRepo_bgCarrier" stroke-width="0"/>
<g id="SVGRepo_tracerCarrier" stroke-linecap="round" stroke-linejoin="round" stroke="#CCCCCC" stroke-width="33.000099999999996"> <path d="M250.607,154.394l-150-150C96.318,0.103,89.865-1.179,84.26,1.142C78.655,3.464,75,8.933,75,15v300 c0,6.067,3.654,11.537,9.26,13.858c1.855,0.769,3.805,1.142,5.737,1.142c3.903,0,7.74-1.524,10.609-4.394l150-150 C256.465,169.749,256.465,160.252,250.607,154.394z M105,278.787V51.214L218.787,165L105,278.787z"/> </g>
<g id="SVGRepo_iconCarrier"> <path d="M250.607,154.394l-150-150C96.318,0.103,89.865-1.179,84.26,1.142C78.655,3.464,75,8.933,75,15v300 c0,6.067,3.654,11.537,9.26,13.858c1.855,0.769,3.805,1.142,5.737,1.142c3.903,0,7.74-1.524,10.609-4.394l150-150 C256.465,169.749,256.465,160.252,250.607,154.394z M105,278.787V51.214L218.787,165L105,278.787z"/> </g>
</svg>